# xmcd
#
# Track frame offsets:
# 150
# 15442
# 34860
# 53530
# 69645
# 82187
# 99485
# 120247
# 133075
# 152135
# 179125
# 203940
#
# Disc length: 2978 seconds
#
#
# Revision: 4
# Processed by: cddbd v1.5.2PL0 Copyright (c) Steve Scherf et al.
# Submitted via: FreeRIP 2.942 
#
DISCID=a10ba00c
DTITLE=Vince Gill, with Patrick Williams and his Orchestra - Breath of Heaven
DYEAR=1992
DGENRE=
TTITLE0=Winter Wonderland
TTITLE1=The Christmas Song
TTITLE2=O Little Town of Bethlehem
TTITLE3=SIlver Bells
TTITLE4=It's the Most Wonderful Time of the Year
TTITLE5=Blue Christmas
TTITLE6=O Holy Night
TTITLE7=Let It Snow, Let It Snow, Let It Snow
TTITLE8=A Cradle in Bethlehem
TTITLE9=Breath of Heaven (Mary's Song)
TTITLE10=O Come All Ye Faithfull
TTITLE11=notrack
EXTD=
EXTT0=
EXTT1=
EXTT2=
EXTT3=
EXTT4=
EXTT5=
EXTT6=
EXTT7=
EXTT8=
EXTT9=
EXTT10=
EXTT11=
PLAYORDER=
